{
    "pending": [],
    "processing": [],
    "completed": [
        {
            "id": "8b0ca4c5-eba3-46ac-984e-e15bb93eeb84",
            "filename": "FUE5_Trailer.mp4",
            "status": "completed",
            "created_at": "2025-01-09T14:50:18.039616",
            "started_at": "2025-01-09T14:50:18.660235",
            "completed_at": "2025-01-09T14:50:46.246469",
            "error": null
        },
        {
            "id": "065a3b79-f434-4943-8ce2-a0f03ce22a60",
            "filename": "FUE5_Trailer.mp4",
            "status": "error",
            "created_at": "2025-01-09T14:52:10.280042",
            "started_at": "2025-01-09T14:52:10.284929",
            "completed_at": null,
            "error": "FFmpeg error: ffmpeg version 5.1.6-0+deb12u1 Copyright (c) 2000-2024 the FFmpeg developers\n  built with gcc 12 (Debian 12.2.0-14)\n  configuration: --prefix=/usr --extra-version=0+deb12u1 --toolchain=hardened --libdir=/usr/lib/x86_64-linux-gnu --incdir=/usr/include/x86_64-linux-gnu --arch=amd64 --enable-gpl --disable-stripping --enable-gnutls --enable-ladspa --enable-libaom --enable-libass --enable-libbluray --enable-libbs2b --enable-libcaca --enable-libcdio --enable-libcodec2 --enable-libdav1d --enable-libflite --enable-libfontconfig --enable-libfreetype --enable-libfribidi --enable-libglslang --enable-libgme --enable-libgsm --enable-libjack --enable-libmp3lame --enable-libmysofa --enable-libopenjpeg --enable-libopenmpt --enable-libopus --enable-libpulse --enable-librabbitmq --enable-librist --enable-librubberband --enable-libshine --enable-libsnappy --enable-libsoxr --enable-libspeex --enable-libsrt --enable-libssh --enable-libsvtav1 --enable-libtheora --enable-libtwolame --enable-libvidstab --enable-libvorbis --enable-libvpx --enable-libwebp --enable-libx265 --enable-libxml2 --enable-libxvid --enable-libzimg --enable-libzmq --enable-libzvbi --enable-lv2 --enable-omx --enable-openal --enable-opencl --enable-opengl --enable-sdl2 --disable-sndio --enable-libjxl --enable-pocketsphinx --enable-librsvg --enable-libmfx --enable-libdc1394 --enable-libdrm --enable-libiec61883 --enable-chromaprint --enable-frei0r --enable-libx264 --enable-libplacebo --enable-librav1e --enable-shared\n  WARNING: library configuration mismatch\n  avcodec     configuration: --prefix=/usr --extra-version=0+deb12u1 --toolchain=hardened --libdir=/usr/lib/x86_64-linux-gnu --incdir=/usr/include/x86_64-linux-gnu --arch=amd64 --enable-gpl --disable-stripping --enable-gnutls --enable-ladspa --enable-libaom --enable-libass --enable-libbluray --enable-libbs2b --enable-libcaca --enable-libcdio --enable-libcodec2 --enable-libdav1d --enable-libflite --enable-libfontconfig --enable-libfreetype --enable-libfribidi --enable-libglslang --enable-libgme --enable-libgsm --enable-libjack --enable-libmp3lame --enable-libmysofa --enable-libopenjpeg --enable-libopenmpt --enable-libopus --enable-libpulse --enable-librabbitmq --enable-librist --enable-librubberband --enable-libshine --enable-libsnappy --enable-libsoxr --enable-libspeex --enable-libsrt --enable-libssh --enable-libsvtav1 --enable-libtheora --enable-libtwolame --enable-libvidstab --enable-libvorbis --enable-libvpx --enable-libwebp --enable-libx265 --enable-libxml2 --enable-libxvid --enable-libzimg --enable-libzmq --enable-libzvbi --enable-lv2 --enable-omx --enable-openal --enable-opencl --enable-opengl --enable-sdl2 --disable-sndio --enable-libjxl --enable-pocketsphinx --enable-librsvg --enable-libmfx --enable-libdc1394 --enable-libdrm --enable-libiec61883 --enable-chromaprint --enable-frei0r --enable-libx264 --enable-libplacebo --enable-librav1e --enable-shared --enable-version3 --disable-doc --disable-programs --enable-libaribb24 --enable-libopencore_amrnb --enable-libopencore_amrwb --enable-libtesseract --enable-libvo_amrwbenc --enable-libsmbclient\n  libavutil      57. 28.100 / 57. 28.100\n  libavcodec     59. 37.100 / 59. 37.100\n  libavformat    59. 27.100 / 59. 27.100\n  libavdevice    59.  7.100 / 59.  7.100\n  libavfilter     8. 44.100 /  8. 44.100\n  libswscale      6.  7.100 /  6.  7.100\n  libswresample   4.  7.100 /  4.  7.100\n  libpostproc    56.  6.100 / 56.  6.100\nInput #0, mov,mp4,m4a,3gp,3g2,mj2, from '/var/www/vault/app/uploads/FUE5_Trailer.mp4':\n  Metadata:\n    major_brand     : isom\n    minor_version   : 512\n    compatible_brands: isomiso2avc1mp41\n    encoder         : Lavf58.76.100\n  Duration: 00:01:42.31, start: 0.000000, bitrate: 3367 kb/s\n  Stream #0:0[0x1](eng): Audio: aac (LC) (mp4a / 0x6134706D), 44100 Hz, stereo, fltp, 128 kb/s (default)\n    Metadata:\n      handler_name    : ISO Media file produced by Google Inc.\n      vendor_id       : [0][0][0][0]\n  Stream #0:1[0x2](und): Video: h264 (High) (avc1 / 0x31637661), yuv420p(tv, bt709, progressive), 1920x1080 [SAR 1:1 DAR 16:9], 3235 kb/s, 25 fps, 25 tbr, 12800 tbn (default)\n    Metadata:\n      handler_name    : ISO Media file produced by Google Inc.\n      vendor_id       : [0][0][0][0]\nFile '/var/www/vault/app/processed/FUE5_Trailer_multi.ts' already exists. Exiting.\n"
        },
        {
            "id": "f902e85b-9411-4d88-94e9-842a7180644b",
            "filename": "1_wifi.mp4",
            "status": "error",
            "created_at": "2025-01-14T09:41:18.444543",
            "started_at": "2025-01-14T09:41:18.988340",
            "completed_at": null,
            "error": "FFmpeg error: ffmpeg version 5.1.6-0+deb12u1 Copyright (c) 2000-2024 the FFmpeg developers\n  built with gcc 12 (Debian 12.2.0-14)\n  configuration: --prefix=/usr --extra-version=0+deb12u1 --toolchain=hardened --libdir=/usr/lib/x86_64-linux-gnu --incdir=/usr/include/x86_64-linux-gnu --arch=amd64 --enable-gpl --disable-stripping --enable-gnutls --enable-ladspa --enable-libaom --enable-libass --enable-libbluray --enable-libbs2b --enable-libcaca --enable-libcdio --enable-libcodec2 --enable-libdav1d --enable-libflite --enable-libfontconfig --enable-libfreetype --enable-libfribidi --enable-libglslang --enable-libgme --enable-libgsm --enable-libjack --enable-libmp3lame --enable-libmysofa --enable-libopenjpeg --enable-libopenmpt --enable-libopus --enable-libpulse --enable-librabbitmq --enable-librist --enable-librubberband --enable-libshine --enable-libsnappy --enable-libsoxr --enable-libspeex --enable-libsrt --enable-libssh --enable-libsvtav1 --enable-libtheora --enable-libtwolame --enable-libvidstab --enable-libvorbis --enable-libvpx --enable-libwebp --enable-libx265 --enable-libxml2 --enable-libxvid --enable-libzimg --enable-libzmq --enable-libzvbi --enable-lv2 --enable-omx --enable-openal --enable-opencl --enable-opengl --enable-sdl2 --disable-sndio --enable-libjxl --enable-pocketsphinx --enable-librsvg --enable-libmfx --enable-libdc1394 --enable-libdrm --enable-libiec61883 --enable-chromaprint --enable-frei0r --enable-libx264 --enable-libplacebo --enable-librav1e --enable-shared\n  WARNING: library configuration mismatch\n  avcodec     configuration: --prefix=/usr --extra-version=0+deb12u1 --toolchain=hardened --libdir=/usr/lib/x86_64-linux-gnu --incdir=/usr/include/x86_64-linux-gnu --arch=amd64 --enable-gpl --disable-stripping --enable-gnutls --enable-ladspa --enable-libaom --enable-libass --enable-libbluray --enable-libbs2b --enable-libcaca --enable-libcdio --enable-libcodec2 --enable-libdav1d --enable-libflite --enable-libfontconfig --enable-libfreetype --enable-libfribidi --enable-libglslang --enable-libgme --enable-libgsm --enable-libjack --enable-libmp3lame --enable-libmysofa --enable-libopenjpeg --enable-libopenmpt --enable-libopus --enable-libpulse --enable-librabbitmq --enable-librist --enable-librubberband --enable-libshine --enable-libsnappy --enable-libsoxr --enable-libspeex --enable-libsrt --enable-libssh --enable-libsvtav1 --enable-libtheora --enable-libtwolame --enable-libvidstab --enable-libvorbis --enable-libvpx --enable-libwebp --enable-libx265 --enable-libxml2 --enable-libxvid --enable-libzimg --enable-libzmq --enable-libzvbi --enable-lv2 --enable-omx --enable-openal --enable-opencl --enable-opengl --enable-sdl2 --disable-sndio --enable-libjxl --enable-pocketsphinx --enable-librsvg --enable-libmfx --enable-libdc1394 --enable-libdrm --enable-libiec61883 --enable-chromaprint --enable-frei0r --enable-libx264 --enable-libplacebo --enable-librav1e --enable-shared --enable-version3 --disable-doc --disable-programs --enable-libaribb24 --enable-libopencore_amrnb --enable-libopencore_amrwb --enable-libtesseract --enable-libvo_amrwbenc --enable-libsmbclient\n  libavutil      57. 28.100 / 57. 28.100\n  libavcodec     59. 37.100 / 59. 37.100\n  libavformat    59. 27.100 / 59. 27.100\n  libavdevice    59.  7.100 / 59.  7.100\n  libavfilter     8. 44.100 /  8. 44.100\n  libswscale      6.  7.100 /  6.  7.100\n  libswresample   4.  7.100 /  4.  7.100\n  libpostproc    56.  6.100 / 56.  6.100\nInput #0, mov,mp4,m4a,3gp,3g2,mj2, from '/var/www/vault/app/uploads/1_wifi.mp4':\n  Metadata:\n    major_brand     : mp42\n    minor_version   : 0\n    compatible_brands: mp42isom\n  Duration: 00:00:54.73, start: 0.000000, bitrate: 450 kb/s\n  Stream #0:0[0x1](und): Video: h264 (High) (avc1 / 0x31637661), yuv420p(tv, bt709, progressive), 382x850, 317 kb/s, 27.90 fps, 30k tbr, 30k tbn (default)\n    Metadata:\n      vendor_id       : [0][0][0][0]\n  Stream #0:1[0x2](und): Audio: aac (LC) (mp4a / 0x6134706D), 44100 Hz, stereo, fltp, 127 kb/s (default)\n    Metadata:\n      vendor_id       : [0][0][0][0]\nFile '/var/www/vault/app/processed/1_wifi_multi.ts' already exists. Exiting.\n"
        },
        {
            "id": "1997d0e6-b2c9-4060-a0e1-2883a81e9c65",
            "filename": "FUE5_Trailer.mp4",
            "status": "completed",
            "created_at": "2025-01-14T09:42:17.771470",
            "started_at": "2025-01-14T09:42:17.898336",
            "completed_at": "2025-01-14T09:42:46.772922",
            "error": null
        }
    ]
}